<svg width="42" height="42" viewBox="0 0 42 42" fill="none" xmlns="http://www.w3.org/2000/svg">
<circle cx="21" cy="21" r="21" fill="white"/>
<path d="M21.0768 29.9302C20.7898 29.9302 20.5132 29.8262 20.2976 29.6374C19.4835 28.9255 18.6985 28.2565 18.006 27.6664L18.0025 27.6633C15.9722 25.9331 14.2188 24.4388 12.9989 22.9668C11.6351 21.3213 11 19.7611 11 18.0567C11 16.4007 11.5678 14.873 12.5987 13.7547C13.642 12.6231 15.0735 12 16.63 12C17.7934 12 18.8588 12.3677 19.7966 13.093C20.2698 13.4592 20.6988 13.9072 21.0768 14.4299C21.4549 13.9072 21.8838 13.4592 22.3571 13.093C23.2949 12.3677 24.3603 12 25.5237 12C27.08 12 28.5117 12.6231 29.555 13.7547C30.5859 14.873 31.1536 16.4007 31.1536 18.0567C31.1536 19.7611 30.5186 21.3213 29.1548 22.9667C27.9349 24.4388 26.1818 25.9328 24.1517 27.663C23.4579 28.254 22.6717 28.9241 21.8557 29.6377C21.6403 29.8262 21.3635 29.9302 21.0768 29.9302ZM16.63 13.1806C15.4071 13.1806 14.2839 13.6686 13.4666 14.5548C12.6373 15.4545 12.1805 16.6981 12.1805 18.0567C12.1805 19.4902 12.7132 20.7722 13.9078 22.2136C15.0623 23.6068 16.7797 25.0702 18.7681 26.7649L18.7717 26.768C19.4669 27.3603 20.255 28.032 21.075 28.7492C21.9001 28.0306 22.6894 27.358 23.386 26.7646C25.3742 25.07 27.0914 23.6068 28.2459 22.2136C29.4404 20.7722 29.9731 19.4902 29.9731 18.0567C29.9731 16.6981 29.5163 15.4545 28.6869 14.5548C27.8698 13.6686 26.7463 13.1806 25.5237 13.1806C24.6278 13.1806 23.8054 13.4653 23.0792 14.0268C22.432 14.5274 21.9812 15.1603 21.7169 15.6031C21.581 15.8309 21.3417 15.9668 21.0768 15.9668C20.8118 15.9668 20.5726 15.8309 20.4367 15.6031C20.1725 15.1603 19.7217 14.5274 19.0744 14.0268C18.3482 13.4653 17.5257 13.1806 16.63 13.1806Z" fill="#F58634"/>
</svg>
